<?xml version="1.0" standalone="no"?>
<!DOCTYPE svg PUBLIC "-//W3C//DTD SVG 20010904//EN"
 "http://www.w3.org/TR/2001/REC-SVG-20010904/DTD/svg10.dtd">
<svg version="1.0" xmlns="http://www.w3.org/2000/svg"
 width="868.000000pt" height="287.000000pt" viewBox="0 0 868.000000 287.000000"
 preserveAspectRatio="xMidYMid meet">

<g transform="translate(0.000000,287.000000) scale(0.100000,-0.100000)"
fill="#000000" stroke="none">
<path d="M0 1480 l0 -1320 1385 0 1385 0 0 1320 -1 1320 -1384 0 -1385 0 0
-1320z m600 1070 c38 -8 -114 -14 -305 -12 -158 2 -180 5 -95 12 98 9 355 8
400 0z m1665 -11 c-27 -4 -70 -6 -94 -4 -80 7 -55 15 45 14 89 -1 94 -2 49
-10z m-1021 -98 c22 -24 16 -27 -68 -36 -86 -9 -236 -58 -341 -113 -59 -30
-82 -38 -92 -30 -19 15 -16 26 15 55 55 52 229 120 342 133 109 12 126 11 144
-9z m60 -7 c9 -23 8 -24 -14 -24 -11 0 -20 2 -20 4 0 12 13 36 20 36 4 0 11
-7 14 -16z m109 -11 c-7 -2 -19 -2 -25 0 -7 3 -2 5 12 5 14 0 19 -2 13 -5z
m72 -23 c3 -5 1 -10 -4 -10 -6 0 -11 5 -11 10 0 6 2 10 4 10 3 0 8 -4 11 -10z
m-961 -373 c3 4 -1 -8 -10 -25 -17 -36 -22 -38 -47 -19 -16 11 -16 14 -2 35
13 17 20 20 34 12 10 -5 21 -6 25 -3z m851 -107 c3 -5 1 -10 -4 -10 -6 0 -11
5 -11 10 0 6 2 10 4 10 3 0 8 -4 11 -10z m-125 -20 c0 -5 -2 -10 -4 -10 -3 0
-8 5 -11 10 -3 6 -1 10 4 10 6 0 11 -4 11 -10z m-826 -11 c19 -9 23 -16 17
-28 -23 -44 -63 -176 -76 -251 -18 -101 -19 -195 -4 -292 8 -51 8 -73 0 -81
-20 -20 -40 15 -57 93 -22 104 -14 257 19 370 28 94 66 200 72 200 2 0 15 -5
29 -11z m594 -96 c-24 -37 -53 -93 -63 -123 -20 -58 -28 -140 -13 -140 4 0 8
8 8 19 0 25 123 147 185 182 42 24 61 29 119 29 38 0 87 -5 110 -12 39 -11
107 -53 114 -71 2 -4 18 -22 34 -40 42 -45 67 -87 61 -103 -3 -8 1 -14 8 -14
7 0 10 -3 6 -6 -3 -3 9 -18 26 -34 22 -19 37 -26 47 -20 8 4 31 9 50 11 19 2
38 8 43 14 5 6 11 3 18 -8 29 -49 40 49 14 122 -8 23 -10 39 -5 36 11 -7 25
-52 40 -128 10 -52 14 -58 41 -64 38 -7 37 -23 -1 -23 -20 0 -33 -6 -37 -17
-4 -10 -18 -29 -31 -43 -22 -21 -24 -22 -18 -5 16 40 18 55 8 55 -6 0 -16 -9
-22 -20 -13 -25 -30 -26 -30 -1 0 20 -34 31 -101 31 -57 0 -88 -16 -156 -81
-72 -69 -106 -85 -207 -99 -66 -10 -81 -8 -133 10 -32 11 -63 26 -68 33 -21
26 -33 17 -25 -18 6 -27 4 -37 -8 -44 -14 -8 -14 -11 1 -34 9 -15 25 -34 35
-44 30 -29 34 -52 9 -49 -35 4 -67 17 -67 26 0 14 -56 65 -109 99 -42 27 -56
45 -82 99 -17 37 -37 80 -45 96 -11 22 -12 31 -3 37 11 6 17 39 23 114 2 29
53 132 104 208 18 27 28 34 33 25 6 -9 13 -7 31 9 28 26 91 64 96 58 2 -2 -16
-35 -40 -72z m1262 -272 c16 -32 20 -91 9 -138 -6 -23 -15 -43 -19 -43 -4 0
-10 -13 -13 -30 -10 -48 -27 -35 -22 18 5 56 15 182 15 200 0 19 18 14 30 -7z
m-1540 -71 c0 -5 -4 -10 -10 -10 -5 0 -10 5 -10 10 0 6 5 10 10 10 6 0 10 -4
10 -10z m1363 -525 c4 -8 -11 -36 -34 -65 -37 -47 -58 -65 -44 -37 4 6 -2 2
-13 -11 -11 -12 -22 -27 -24 -33 -2 -5 -10 -11 -18 -12 -8 -2 -21 -6 -27 -10
-26 -16 -12 10 22 43 20 19 52 58 72 87 37 54 56 65 66 38z m-733 -415 c0 -5
-4 -10 -10 -10 -5 0 -10 5 -10 10 0 6 5 10 10 10 6 0 10 -4 10 -10z"/>
<path d="M3184 2099 c-110 -14 -195 -72 -241 -167 -23 -48 -28 -69 -27 -132 1
-86 21 -135 76 -186 47 -44 77 -59 213 -105 181 -61 225 -99 225 -195 0 -112
-71 -183 -190 -192 -89 -6 -150 10 -226 59 -77 50 -94 50 -123 -2 -22 -39 -22
-41 -5 -60 33 -37 130 -88 195 -104 79 -18 156 -19 230 -1 159 37 251 154 252
320 1 65 -3 89 -20 122 -39 74 -123 127 -283 179 -99 32 -164 67 -185 99 -26
40 -34 83 -23 123 36 135 218 173 369 77 55 -35 75 -31 99 17 20 39 20 42 4
60 -9 10 -44 32 -76 48 -52 27 -78 33 -178 45 -14 1 -53 -1 -86 -5z"/>
<path d="M5710 1550 l0 -540 310 0 310 0 0 60 0 60 -235 0 -235 0 0 480 0 480
-75 0 -75 0 0 -540z"/>
<path d="M3833 2015 c-8 -6 -20 -56 -30 -132 l-16 -122 -61 -8 -61 -8 0 -35 0
-35 58 -3 57 -3 0 -247 c0 -136 5 -265 10 -286 18 -78 71 -124 151 -133 62 -6
148 15 188 46 l24 18 -22 37 c-25 39 -36 43 -65 21 -29 -22 -102 -19 -125 4
-29 29 -32 63 -29 311 l3 225 110 3 110 3 -3 44 -4 45 -109 0 -109 0 0 134 0
133 -31 -1 c-18 -1 -38 -5 -46 -11z"/>
<path d="M4510 1779 c-52 -10 -133 -48 -175 -83 -29 -24 -29 -26 -15 -52 28
-51 42 -52 112 -9 57 36 71 40 140 43 77 4 78 4 112 -30 38 -38 56 -89 56
-159 l0 -47 -72 -7 c-146 -13 -262 -48 -331 -99 -89 -65 -88 -232 0 -294 95
-66 245 -54 354 28 55 41 69 40 69 -7 0 -33 27 -53 72 -53 l40 0 -5 288 c-4
326 -7 342 -77 414 -67 69 -158 91 -280 67z m230 -502 c0 -78 -2 -85 -27 -109
-100 -94 -264 -104 -308 -18 -51 99 40 179 227 199 46 4 89 9 96 10 9 1 12
-22 12 -82z"/>
<path d="M5367 1776 c-55 -20 -103 -61 -134 -114 l-28 -47 -8 70 c-8 80 -21
95 -79 95 l-38 0 0 -385 0 -385 65 0 65 0 0 245 c0 277 2 289 78 357 48 43 84
52 167 43 70 -7 69 -8 80 68 l7 45 -38 11 c-51 14 -90 13 -137 -3z"/>
<path d="M6683 1780 c-153 -22 -259 -138 -286 -311 -29 -191 70 -392 220 -443
138 -48 323 -19 411 64 26 25 26 24 6 55 -21 33 -38 31 -120 -7 -126 -59 -264
-40 -327 44 -30 42 -53 100 -62 161 l-7 47 260 0 c308 0 298 -3 287 94 -25
214 -170 327 -382 296z m139 -100 c65 -18 128 -110 128 -187 l0 -23 -210 0
-210 0 0 23 c0 32 43 118 73 145 50 46 141 63 219 42z"/>
<path d="M7563 1780 c-51 -11 -85 -28 -143 -74 -48 -37 -60 -34 -60 16 0 40
-25 60 -74 56 l-41 -3 0 -380 0 -380 63 -3 62 -3 0 279 0 279 46 42 c58 54 99
71 171 71 69 0 113 -23 140 -72 16 -29 18 -66 21 -315 l3 -283 65 0 64 0 0
273 c0 301 -6 340 -59 414 -49 68 -157 102 -258 83z"/>
<path d="M8252 1779 c-132 -22 -209 -110 -200 -229 7 -101 54 -143 228 -202
96 -32 155 -68 165 -98 11 -35 -3 -85 -33 -113 -62 -60 -148 -64 -248 -12 -37
19 -75 33 -84 30 -21 -7 -55 -65 -43 -74 83 -56 161 -81 254 -81 160 0 279
103 279 242 0 101 -57 153 -225 208 -142 46 -183 80 -171 144 17 91 152 124
271 66 23 -11 49 -20 58 -20 17 0 47 36 47 57 0 20 -100 72 -150 78 -25 4 -56
8 -70 10 -14 1 -49 -1 -78 -6z"/>
</g>
</svg>
